<?xml version="1.0" encoding="UTF-8"?>
<svg id="Layer_1" data-name="Layer 1" xmlns="http://www.w3.org/2000/svg" viewBox="0 0 250 49.01">
  <defs>
    <style>
      .cls-1 {
        fill: #fff;
        fill-rule: evenodd;
        stroke-width: 0px;
      }
    </style>
  </defs>
  <path class="cls-1" d="M48.34,37.5c-1.58,2.56-5.2,5.06-10.92,5.06H12.24v-15.64h19.11c5.39,0,6.77-.13,6.77,4.15h1.45l-.07-13.26h-1.38c-.13,2.7-.2,3.49-2.1,4.02-.72.26-2.37.19-4.67.19H12.24V6.71c0-.09,0-.17,0-.26h20.78c5.72,0,9.34,2.5,10.92,5.06l1.51-.59-4.8-9.61H11.26s-11.26,0-11.26,0v1.45c2.3,0,2.96.2,3.62,1.12.66.86.66,2.3.66,4.87v33.81c0,3.03-1.18,3.55-4.01,3.62v1.51h44.78l4.8-9.61-1.51-.59Z"/>
  <path class="cls-1" d="M186.02,27.04c-4.74.07-5.07.26-4.94,4.87l.13,6.64c-2.04,4.47-8.75,7.5-13.81,8.81-4.04,1.07-8.19,1.62-12.37,1.64-10.53,0-19.08-2.37-25.26-7.63-5.13-4.34-8.29-9.87-8.29-15.91,0-7.37,3.16-13.29,9.54-18.16C137.33,2.43,145.16-.07,154.83,0c3.68.06,7.63.46,11.51,1.38,3.55.86,7.3,2.17,10.33,4.01l2.43,10.33-1.51.59c-1.51-3.16-5.59-7.43-9.41-9.54-3.36-1.91-7.96-3.09-12.9-3.16-5.72-.06-11.51,1.97-14.93,4.34-5.26,3.62-9.74,9.41-9.74,16.44s4.21,13.16,8.55,15.99c4.28,2.7,9.41,4.53,15.98,4.47,3.95-.07,8.16-1.06,10.46-1.97,2.5-.99,5.99-2.56,7.5-5.46l.07-4.01c0-1.39.26-4.94-.79-5.73-1.12-.72-2.37-.66-4.21-.66v-1.58h17.83v1.58h0,0Z"/>
  <path class="cls-1" d="M99.02,46.25v1.51h16.12l-.07-1.51h0c-4.41,0-4.21-1.71-4.21-6.71V9.47c0-5.39-.13-6.77,4.15-6.77v-1.45l-16.32.07v1.38c2.7.13,3.49.2,4.02,2.1.26.72.19,2.37.19,4.67v12.61h-33.23v-12.61c0-5.39-.13-6.77,4.15-6.77v-1.45l-16.32.07v1.38c2.7.13,3.49.2,4.02,2.1.26.72.19,2.37.19,4.67v30.06c0,5.46.47,6.71-3.88,6.71v1.51h16.12l-.07-1.51h0c-4.41,0-4.21-1.71-4.21-6.71v-12.54h33.23v12.54c0,5.46.47,6.71-3.88,6.71Z"/>
  <path class="cls-1" d="M233.88,46.25v1.51h16.12l-.07-1.51h0c-4.41,0-4.21-1.71-4.21-6.71V9.47c0-5.39-.13-6.77,4.15-6.77v-1.45l-16.32.07v1.38c2.7.13,3.49.2,4.02,2.1.26.72.19,2.37.19,4.67v12.61h-33.23v-12.61c0-5.39-.13-6.77,4.15-6.77v-1.45l-16.32.07v1.38c2.7.13,3.49.2,4.02,2.1.26.72.19,2.37.19,4.67v30.06c0,5.46.47,6.71-3.88,6.71v1.51h16.12l-.07-1.51h0c-4.41,0-4.21-1.71-4.21-6.71v-12.54h33.23v12.54c0,5.46.47,6.71-3.88,6.71Z"/>
</svg>